<?xml version="1.0" encoding="iso-8859-1"?>
<!-- Generator: Adobe Illustrator 19.0.0, SVG Export Plug-In . SVG Version: 6.00 Build 0)  -->
<svg width="40px" height="40px" version="1.1" id="Capa_1" xmlns="http://www.w3.org/2000/svg" xmlns:xlink="http://www.w3.org/1999/xlink" x="0px" y="0px"
	 viewBox="0 0 511.993 511.993" style="enable-background:new 0 0 511.993 511.993;" xml:space="preserve">
<linearGradient id="SVGID_1_" gradientUnits="userSpaceOnUse" x1="69.654" y1="448.2119" x2="416.1364" y2="101.7296" gradientTransform="matrix(1.0449 0 0 -1.0449 2.1993 543.3086)">
	<stop  offset="0" style="stop-color:#FF597A"/>
	<stop  offset="1" style="stop-color:#BD0019"/>
</linearGradient>
<circle style="fill:url(#SVGID_1_);" cx="255.996" cy="255.996" r="255.996"/>
<linearGradient id="SVGID_2_" gradientUnits="userSpaceOnUse" x1="163.8952" y1="252.4522" x2="374.0552" y2="252.4522" gradientTransform="matrix(1.0449 0 0 -1.0449 2.1993 543.3086)">
	<stop  offset="0" style="stop-color:#FFFFFF"/>
	<stop  offset="1" style="stop-color:#C8C6CC"/>
</linearGradient>
<polygon style="fill:url(#SVGID_2_);" points="409.93,365.866 450.515,194.415 150.67,194.415 140.302,150.614 71.59,150.614 
	71.59,168.27 121.22,168.27 167.996,365.866 177.237,408.437 398.715,408.437 398.715,395.895 193.561,395.895 186.443,365.866 
	191.257,365.866 "/>
<g>
	
		<linearGradient id="SVGID_3_" gradientUnits="userSpaceOnUse" x1="163.8952" y1="98.4707" x2="374.0552" y2="98.4707" gradientTransform="matrix(1.0449 0 0 -1.0449 2.1993 543.3086)">
		<stop  offset="0" style="stop-color:#00E8F2"/>
		<stop  offset="1" style="stop-color:#00B7BE"/>
	</linearGradient>
	<circle style="fill:url(#SVGID_3_);" cx="231.337" cy="440.418" r="31.608"/>
	
		<linearGradient id="SVGID_4_" gradientUnits="userSpaceOnUse" x1="163.8952" y1="367.3507" x2="374.0552" y2="367.3507" gradientTransform="matrix(1.0449 0 0 -1.0449 2.1993 543.3086)">
		<stop  offset="0" style="stop-color:#00E8F2"/>
		<stop  offset="1" style="stop-color:#00B7BE"/>
	</linearGradient>
	<circle style="fill:url(#SVGID_4_);" cx="59.192" cy="159.47" r="23.061"/>
	
		<linearGradient id="SVGID_5_" gradientUnits="userSpaceOnUse" x1="163.8952" y1="98.4707" x2="374.0552" y2="98.4707" gradientTransform="matrix(1.0449 0 0 -1.0449 2.1993 543.3086)">
		<stop  offset="0" style="stop-color:#00E8F2"/>
		<stop  offset="1" style="stop-color:#00B7BE"/>
	</linearGradient>
	<circle style="fill:url(#SVGID_5_);" cx="346.588" cy="440.418" r="31.608"/>
</g>
<linearGradient id="SVGID_6_" gradientUnits="userSpaceOnUse" x1="163.8952" y1="251.8642" x2="374.0552" y2="251.8642" gradientTransform="matrix(1.0449 0 0 -1.0449 2.1993 543.3086)">
	<stop  offset="0" style="stop-color:#00E8F2"/>
	<stop  offset="1" style="stop-color:#006EF5"/>
</linearGradient>
<polygon style="fill:url(#SVGID_6_);" points="159.117,215.988 185.993,344.292 391.103,344.292 417.978,215.988 "/>
<g>
</g>
<g>
</g>
<g>
</g>
<g>
</g>
<g>
</g>
<g>
</g>
<g>
</g>
<g>
</g>
<g>
</g>
<g>
</g>
<g>
</g>
<g>
</g>
<g>
</g>
<g>
</g>
<g>
</g>
</svg>
