<svg height="45" viewBox="0 0 64 64" width="45" xmlns="http://www.w3.org/2000/svg"><g id="Flat"><g id="Color_copy" data-name="Color copy"><g><circle cx="32" cy="35" fill="#57b7eb" r="26"/><path d="m44 50a26 26 0 0 1 -22.685-38.7 26 26 0 1 0 33.37 36.4 25.9 25.9 0 0 1 -10.685 2.3z" fill="#4891d3"/><g><g fill="#fcbc04"><path d="m32 62a27 27 0 1 1 27-27 27.03 27.03 0 0 1 -27 27zm0-52a25 25 0 1 0 25 25 25.028 25.028 0 0 0 -25-25z"/><path d="m32 62c-9.374 0-17-12.112-17-27s7.626-27 17-27 17 12.112 17 27-7.626 27-17 27zm0-52c-8.271 0-15 11.215-15 25s6.729 25 15 25 15-11.215 15-25-6.729-25-15-25z"/><path d="m32 62a1 1 0 0 1 -1-1v-52a1 1 0 0 1 2 0v52a1 1 0 0 1 -1 1z"/><path d="m58 36h-52a1 1 0 0 1 0-2h52a1 1 0 0 1 0 2z"/><g><path d="m32 23c-7.451 0-14.379-1.742-19.508-4.906a1 1 0 0 1 1.05-1.7c4.748 2.926 11.476 4.606 18.458 4.606s13.71-1.68 18.458-4.608a1 1 0 0 1 1.05 1.7c-5.129 3.166-12.057 4.908-19.508 4.908z"/><path d="m50.982 53.757a1 1 0 0 1 -.524-.149c-4.748-2.928-11.476-4.608-18.458-4.608s-13.71 1.68-18.458 4.608a1 1 0 1 1 -1.05-1.7c5.129-3.166 12.057-4.908 19.508-4.908s14.379 1.742 19.508 4.906a1 1 0 0 1 -.526 1.851z"/></g></g><g fill="#f8664f"><path d="m17.118 10a1 1 0 0 1 -.655-1.757 21.4 21.4 0 0 1 25.485-1.92 1 1 0 0 1 -1.067 1.691 19.4 19.4 0 0 0 -23.109 1.742 1 1 0 0 1 -.654.244z"/><path d="m30.5 45a21.688 21.688 0 0 1 -2.207-.113 1 1 0 1 1 .2-1.989 19.5 19.5 0 0 0 21.492-19.114 1.035 1.035 0 0 1 1.015-.984 1 1 0 0 1 .986 1.014 21.581 21.581 0 0 1 -21.486 21.186z"/><path d="m11.782 32.818a1 1 0 0 1 -.915-.595 21.539 21.539 0 0 1 -1.148-3.288 1 1 0 0 1 1.936-.5 19.521 19.521 0 0 0 1.04 2.982 1 1 0 0 1 -.913 1.4z"/><path d="m22.543 31.817a.982.982 0 0 1 -.121-.007 1 1 0 0 1 -.873-1.112 21.609 21.609 0 0 1 14.3-17.722 1 1 0 0 1 .654 1.89 19.6 19.6 0 0 0 -12.969 16.071 1 1 0 0 1 -.991.88z"/></g></g><g fill="#f89c8d"><path d="m51 3a6 6 0 0 0 -6 6c0 6 6 10 6 10s6-4 6-10a6 6 0 0 0 -6-6zm0 8a2 2 0 1 1 2-2 2 2 0 0 1 -2 2z"/><path d="m10 9a6 6 0 0 0 -6 6c0 6 6 10 6 10s6-4 6-10a6 6 0 0 0 -6-6zm0 8a2 2 0 1 1 2-2 2 2 0 0 1 -2 2z"/><path d="m19 34a6 6 0 0 0 -6 6c0 6 6 10 6 10s6-4 6-10a6 6 0 0 0 -6-6zm0 8a2 2 0 1 1 2-2 2 2 0 0 1 -2 2z"/></g><path d="m48 7a5.97 5.97 0 0 1 1.327-3.759 6 6 0 0 0 -4.327 5.759c0 6 6 10 6 10a16.422 16.422 0 0 0 2.592-2.3c-1.337-1.013-5.592-4.64-5.592-9.7z" fill="#f8664f"/><path d="m7 13a5.97 5.97 0 0 1 1.327-3.759 6 6 0 0 0 -4.327 5.759c0 6 6 10 6 10a16.422 16.422 0 0 0 2.592-2.3c-1.337-1.013-5.592-4.64-5.592-9.7z" fill="#f8664f"/><path d="m16 38a5.97 5.97 0 0 1 1.327-3.759 6 6 0 0 0 -4.327 5.759c0 6 6 10 6 10a16.422 16.422 0 0 0 2.592-2.3c-1.337-1.013-5.592-4.64-5.592-9.7z" fill="#f8664f"/></g></g></g></svg>